<svg id="visual" viewBox="0 0 900 600" width="900" height="600" xmlns="http://www.w3.org/2000/svg" xmlns:xlink="http://www.w3.org/1999/xlink" version="1.1"><path d="M0 519L21.5 520.8C43 522.7 86 526.3 128.8 519C171.7 511.7 214.3 493.3 257.2 496.8C300 500.3 343 525.7 385.8 528.2C428.7 530.7 471.3 510.3 514.2 509.3C557 508.3 600 526.7 642.8 523.3C685.7 520 728.3 495 771.2 490.2C814 485.3 857 500.7 878.5 508.3L900 516L900 601L878.5 601C857 601 814 601 771.2 601C728.3 601 685.7 601 642.8 601C600 601 557 601 514.2 601C471.3 601 428.7 601 385.8 601C343 601 300 601 257.2 601C214.3 601 171.7 601 128.8 601C86 601 43 601 21.5 601L0 601Z" fill="#182434" stroke-linecap="round" stroke-linejoin="miter"></path></svg>