<svg id="visual" viewBox="0 0 900 600" width="900" height="600" xmlns="http://www.w3.org/2000/svg" xmlns:xlink="http://www.w3.org/1999/xlink" version="1.1"><path d="M0 546L21.5 547.2C43 548.3 86 550.7 128.8 545.7C171.7 540.7 214.3 528.3 257.2 530.7C300 533 343 550 385.8 551.7C428.7 553.3 471.3 539.7 514.2 539C557 538.3 600 550.7 642.8 548.5C685.7 546.3 728.3 529.7 771.2 526.3C814 523 857 533 878.5 538L900 543L900 601L878.5 601C857 601 814 601 771.2 601C728.3 601 685.7 601 642.8 601C600 601 557 601 514.2 601C471.3 601 428.7 601 385.8 601C343 601 300 601 257.2 601C214.3 601 171.7 601 128.8 601C86 601 43 601 21.5 601L0 601Z" fill="#182434" stroke-linecap="round" stroke-linejoin="miter"></path></svg>